<svg xmlns="http://www.w3.org/2000/svg" version="1.0" viewBox="0 0 397 397" fill="#6284DF"><path d="M96.3 47.1c-21.6 3.7-41.2 21.4-48 43.4-1.7 5.7-1.8 11.8-1.8 108 0 113.5-.4 106.2 6.8 120 4.2 7.9 17.3 21 25.2 25.2 13.8 7.2 6.5 6.8 120 6.8s106.2.4 120-6.8c7.9-4.2 21-17.3 25.2-25.2 7.2-13.8 6.8-6.5 6.8-120s.4-106.2-6.8-120c-4.2-7.9-17.3-21-25.2-25.2-13.9-7.2-5.8-6.8-117-6.9-55-.1-102.3.2-105.2.7M251.7 102c24.6 13.9 46.4 26.4 48.3 27.9 1.9 1.6 4.9 5 6.5 7.6l3 4.8.3 54.6.3 54.6-2.8 5.5c-1.7 3.4-4.3 6.6-6.8 8.4-2.2 1.5-24 14-48.4 27.7-45.7 25.5-48.7 26.9-56.8 25.6-2-.4-23.4-11.8-48.7-25.9-33.1-18.6-46.3-26.5-49.7-29.8-8-8-7.9-7-7.9-66 0-56.4.1-57.2 5.8-63.8 1.7-2 18.4-11.9 45.5-27.2 57.1-32 53.2-30.2 61.4-29.6 4.6.4 10.2 3.3 50 25.6m69.7 198.4c5.4 2.3 9 7.8 9 14.1.1 6-1.8 9.5-7.4 13.2-4.3 3-11.2 3.1-15.8.3-10.1-6.2-9.6-21.4.8-26.8 5.1-2.5 8.7-2.8 13.4-.8"/><path d="M249.8 179.4c-21.2 12.3-39.4 22.6-40.2 22.9-1.4.6-1.6 5.8-1.6 48.1v47.5l18.3-10.6c10-5.8 27.5-15.9 39-22.5 11.4-6.6 21.6-13.1 22.7-14.5 1.9-2.5 2-4.1 2-47.9 0-25-.3-45.4-.7-45.4-.5 0-18.2 10.1-39.5 22.4m20.5 13.6c5.6 4.4 5.8 13.4.6 27.1-3.3 8.7-8.7 17.3-14.9 23.9-2.3 2.4-3.7 4.6-3.1 4.8.5.2 2.2 1.3 3.6 2.4 3.6 2.8 3.2 8.2-.7 11.1-2.7 2-3.4 2-15.9 1-10.4-.8-13.6-1.4-15.7-3-4.9-3.6-4.9-5.8-.4-20.9 2.3-7.6 4.8-14.4 5.6-15.3 2.2-2.1 7.4-1.8 9.8.6 1.6 1.7 2 3.3 1.9 7.4l-.1 5.3 3.6-3.5c4.6-4.4 8.8-11.1 11.9-18.7 2.7-6.6 3.1-9.7 2-15.4-.6-3.1-.4-4 1.8-6.2 3.1-3.1 6.5-3.3 10-.6"/></svg>